# xmcd
#
# Track frame offsets: 
#        150
#        12621
#        24902
#        38629
#        52984
#        65072
#        77164
#        89561
#        102814
#        116696
#        129658
#        143962
#        156311
#        170062
#        182802
#        197060
#        210108
#        224016
#        235962
#        250186
#        262216
#        275451
#        288094
#
# Disc length: 4028 seconds
#
# Revision: 3
# Processed by: cddbd v1.5.2PL0 Copyright (c) Steve Scherf et al.
# Submitted via: ExactAudioCopyFreeDBPlugin 1.0
#
DISCID=5a0fba17
DTITLE=T-Bone Walker - T-Bone Walker:  The Original Source [Proper Rec
DTITLE=ords]
DYEAR=2002
DGENRE=Blues
TTITLE0=I Know Your Wig is Gone
TTITLE1=T-Bone Jumps Again
TTITLE2=Call it Stormy Monday (But Tuesday is Just as Bad)
TTITLE3=She Had to Let Me Down
TTITLE4=She's My Old Time Used to Be
TTITLE5=Dream Girl Blues
TTITLE6=Midnight Blues
TTITLE7=Long Lost Lover Blues
TTITLE8=Triflin' Woman Blues
TTITLE9=Long Skirt Baby Blues
TTITLE10=Goodbye Blues
TTITLE11=Too Much Trouble Blues
TTITLE12=I'm Waiting for Your Call
TTITLE13=Hypin' Woman Blues
TTITLE14=So Blue Blues
TTITLE15=On Your Way Blues
TTITLE16=The Natural Blues
TTITLE17=That's Better for Me
TTITLE18=First Love Blues
TTITLE19=Lonesome Woman Blues
TTITLE20=Vacation Blues
TTITLE21=Inspiration Blues
TTITLE22=Description Blues
EXTD=
EXTT0=
EXTT1=
EXTT2=
EXTT3=
EXTT4=
EXTT5=
EXTT6=
EXTT7=
EXTT8=
EXTT9=
EXTT10=
EXTT11=
EXTT12=
EXTT13=
EXTT14=
EXTT15=
EXTT16=
EXTT17=
EXTT18=
EXTT19=
EXTT20=
EXTT21=
EXTT22=
PLAYORDER=
